HIERARCHY
ROOT Hips
{
	OFFSET 0.000000 71.427986 0.000000
	CHANNELS 6 Xposition Yposition Zposition Xrotation Yrotation Zrotation
	JOINT Pelvis
	{
		OFFSET 0.000000 0.000000 0.000000
		CHANNELS 3 Xrotation Yrotation Zrotation
		JOINT LeftUpLeg
		{
			OFFSET 6.797100 -2.508499 -1.318700
			CHANNELS 3 Xrotation Yrotation Zrotation
			JOINT LeftLeg
			{
				OFFSET 0.069008 -29.241863 0.690200
				CHANNELS 3 Xrotation Yrotation Zrotation
				JOINT LeftFoot
				{
					OFFSET -0.069008 -29.568123 -0.266800
					CHANNELS 3 Xrotation Yrotation Zrotation
					JOINT LeftToeBase
					{
						OFFSET 3.145500 -8.631000 16.059900
						CHANNELS 3 Xrotation Yrotation Zrotation
						End Site
						{
							OFFSET 0.000000 18.501587 0.000000
						}
					}
				}
			}
			JOINT Left_ShortSleeve
			{
				OFFSET 0.265923 -10.480953 1.153800
				CHANNELS 3 Xrotation Yrotation Zrotation
				End Site
				{
					OFFSET 1.725763 19.823879 0.000000
				}
			}
		}
		JOINT RightUpLeg
		{
			OFFSET -6.797100 -2.508499 -1.318700
			CHANNELS 3 Xrotation Yrotation Zrotation
			JOINT RightLeg
			{
				OFFSET -0.082453 -29.241932 0.688000
				CHANNELS 3 Xrotation Yrotation Zrotation
				JOINT RightFoot
				{
					OFFSET 0.082453 -29.568058 -0.264600
					CHANNELS 3 Xrotation Yrotation Zrotation
					JOINT RightToeBase
					{
						OFFSET -3.115300 -8.682800 16.113400
						CHANNELS 3 Xrotation Yrotation Zrotation
						End Site
						{
							OFFSET 0.000000 18.567114 0.000000
						}
					}
				}
			}
			JOINT Right_ShortSleeve
			{
				OFFSET -0.265923 -10.480953 1.153800
				CHANNELS 3 Xrotation Yrotation Zrotation
				End Site
				{
					OFFSET -1.725766 19.823910 0.000000
				}
			}
		}
	}
	JOINT Spine
	{
		OFFSET 0.000000 13.368103 0.470500
		CHANNELS 3 Xrotation Yrotation Zrotation
		JOINT Spine1
		{
			OFFSET 0.147000 13.837402 0.538800
			CHANNELS 3 Xrotation Yrotation Zrotation
			JOINT Spine2
			{
				OFFSET 0.168000 16.242897 -1.435500
				CHANNELS 3 Xrotation Yrotation Zrotation
				JOINT Neck
				{
					OFFSET 0.217200 18.631500 -1.679100
					CHANNELS 3 Xrotation Yrotation Zrotation
					JOINT Head
					{
						OFFSET 0.000000 6.599396 1.385900
						CHANNELS 3 Xrotation Yrotation Zrotation
						JOINT Hat
						{
							OFFSET -0.532200 27.220596 -10.096100
							CHANNELS 3 Xrotation Yrotation Zrotation
							End Site
							{
								OFFSET 0.000000 22.029861 0.000000
							}
						}
						JOINT HairD
						{
							OFFSET -10.777400 17.437393 -1.325900
							CHANNELS 3 Xrotation Yrotation Zrotation
							JOINT HairD1
							{
								OFFSET -3.290299 -11.051193 1.062200
								CHANNELS 3 Xrotation Yrotation Zrotation
								End Site
								{
									OFFSET 0.000000 11.579437 0.000000
								}
							}
						}
						JOINT HairB
						{
							OFFSET -10.777400 17.437393 1.467900
							CHANNELS 3 Xrotation Yrotation Zrotation
							JOINT HairB1
							{
								OFFSET -1.561200 -12.956299 3.590200
								CHANNELS 3 Xrotation Yrotation Zrotation
								End Site
								{
									OFFSET 0.000000 13.534866 0.000000
								}
							}
						}
						JOINT HairA
						{
							OFFSET 9.713100 17.437393 1.467900
							CHANNELS 3 Xrotation Yrotation Zrotation
							JOINT HairA1
							{
								OFFSET 1.561200 -12.956299 3.590200
								CHANNELS 3 Xrotation Yrotation Zrotation
								End Site
								{
									OFFSET 0.000000 13.534866 0.000000
								}
							}
						}
						JOINT HairC
						{
							OFFSET 9.713100 17.437393 -1.325900
							CHANNELS 3 Xrotation Yrotation Zrotation
							JOINT HairC1
							{
								OFFSET 3.290300 -11.051193 1.062200
								CHANNELS 3 Xrotation Yrotation Zrotation
								End Site
								{
									OFFSET 0.000000 11.579437 0.000000
								}
							}
						}
					}
				}
				JOINT LeftShoulder
				{
					OFFSET 5.101800 15.108002 -2.763700
					CHANNELS 3 Xrotation Yrotation Zrotation
					JOINT LeftArm
					{
						OFFSET 9.825497 2.506317 -1.597400
						CHANNELS 3 Xrotation Yrotation Zrotation
						JOINT LeftForeArm
						{
							OFFSET 21.966244 0.000000 0.000000
							CHANNELS 3 Xrotation Yrotation Zrotation
							JOINT LeftHand
							{
								OFFSET 33.879036 0.000000 0.000000
								CHANNELS 3 Xrotation Yrotation Zrotation
								JOINT LeftHandThumb1
								{
									OFFSET 6.715286 -2.359680 3.363841
									CHANNELS 3 Xrotation Yrotation Zrotation
									JOINT LeftHandThumb2
									{
										OFFSET 2.507072 -1.447464 1.447461
										CHANNELS 3 Xrotation Yrotation Zrotation
										JOINT LeftHandThumb3
										{
											OFFSET 2.898338 -1.673355 1.673357
											CHANNELS 3 Xrotation Yrotation Zrotation
											End Site
											{
												OFFSET -0.295959 3.727692 -0.131651
											}
										}
									}
								}
								JOINT LeftHandIndex1
								{
									OFFSET 14.190811 -0.254547 3.840278
									CHANNELS 3 Xrotation Yrotation Zrotation
									JOINT LeftHandIndex2
									{
										OFFSET 3.551727 0.000000 -0.000000
										CHANNELS 3 Xrotation Yrotation Zrotation
										JOINT LeftHandIndex3
										{
											OFFSET 2.894196 0.000000 0.000000
											CHANNELS 3 Xrotation Yrotation Zrotation
											End Site
											{
												OFFSET -1.000603 2.690872 0.366626
											}
										}
									}
								}
								JOINT LeftHandMiddle1
								{
									OFFSET 13.776489 0.000000 0.000000
									CHANNELS 3 Xrotation Yrotation Zrotation
									JOINT LeftHandMiddle2
									{
										OFFSET 3.438232 0.000000 0.000000
										CHANNELS 3 Xrotation Yrotation Zrotation
										JOINT LeftHandMiddle3
										{
											OFFSET 3.691551 0.000000 0.000000
											CHANNELS 3 Xrotation Yrotation Zrotation
											End Site
											{
												OFFSET -1.082298 3.499527 0.457670
											}
										}
									}
								}
								JOINT LeftHandRing1
								{
									OFFSET 13.966164 -0.268127 -3.067488
									CHANNELS 3 Xrotation Yrotation Zrotation
									JOINT LeftHandRing2
									{
										OFFSET 3.162567 0.000000 0.000000
										CHANNELS 3 Xrotation Yrotation Zrotation
										JOINT LeftHandRing3
										{
											OFFSET 3.324348 0.000000 0.000000
											CHANNELS 3 Xrotation Yrotation Zrotation
											End Site
											{
												OFFSET -0.861900 3.184998 0.405154
											}
										}
									}
								}
								JOINT LeftHandPinky1
								{
									OFFSET 13.131393 -0.168503 -5.746925
									CHANNELS 3 Xrotation Yrotation Zrotation
									JOINT LeftHandPinky2
									{
										OFFSET 2.849182 0.000000 0.000000
										CHANNELS 3 Xrotation Yrotation Zrotation
										JOINT LeftHandPinky3
										{
											OFFSET 2.805038 0.000000 0.000000
											CHANNELS 3 Xrotation Yrotation Zrotation
											End Site
											{
												OFFSET -0.882500 2.642609 0.325652
											}
										}
									}
								}
							}
							JOINT Left_Sleeve
							{
								OFFSET 6.592125 -0.646545 0.805568
								CHANNELS 3 Xrotation Yrotation Zrotation
								End Site
								{
									OFFSET -0.000179 20.275787 -0.000000
								}
							}
						}
					}
				}
				JOINT RightShoulder
				{
					OFFSET -5.731700 15.108002 -2.763700
					CHANNELS 3 Xrotation Yrotation Zrotation
					JOINT RightArm
					{
						OFFSET -9.825497 2.506317 -1.597400
						CHANNELS 3 Xrotation Yrotation Zrotation
						JOINT RightForeArm
						{
							OFFSET -21.966242 0.000000 0.000000
							CHANNELS 3 Xrotation Yrotation Zrotation
							JOINT RightHand
							{
								OFFSET -33.879032 0.000000 0.000000
								CHANNELS 3 Xrotation Yrotation Zrotation
								JOINT RightHandThumb1
								{
									OFFSET -6.715286 -2.359680 3.363841
									CHANNELS 3 Xrotation Yrotation Zrotation
									JOINT RightHandThumb2
									{
										OFFSET -2.507072 -1.447464 1.447461
										CHANNELS 3 Xrotation Yrotation Zrotation
										JOINT RightHandThumb3
										{
											OFFSET -2.898338 -1.673355 1.673357
											CHANNELS 3 Xrotation Yrotation Zrotation
											End Site
											{
												OFFSET 0.295959 3.727692 -0.131651
											}
										}
									}
								}
								JOINT RightHandIndex1
								{
									OFFSET -14.190811 -0.254547 3.840278
									CHANNELS 3 Xrotation Yrotation Zrotation
									JOINT RightHandIndex2
									{
										OFFSET -3.551727 0.000000 -0.000000
										CHANNELS 3 Xrotation Yrotation Zrotation
										JOINT RightHandIndex3
										{
											OFFSET -2.894196 0.000000 0.000000
											CHANNELS 3 Xrotation Yrotation Zrotation
											End Site
											{
												OFFSET 1.000603 2.690872 0.366626
											}
										}
									}
								}
								JOINT RightHandMiddle1
								{
									OFFSET -13.776489 0.000000 0.000000
									CHANNELS 3 Xrotation Yrotation Zrotation
									JOINT RightHandMiddle2
									{
										OFFSET -3.438232 0.000000 0.000000
										CHANNELS 3 Xrotation Yrotation Zrotation
										JOINT RightHandMiddle3
										{
											OFFSET -3.691551 0.000000 0.000000
											CHANNELS 3 Xrotation Yrotation Zrotation
											End Site
											{
												OFFSET 1.082298 3.499527 0.457670
											}
										}
									}
								}
								JOINT RightHandRing1
								{
									OFFSET -13.966164 -0.268127 -3.067488
									CHANNELS 3 Xrotation Yrotation Zrotation
									JOINT RightHandRing2
									{
										OFFSET -3.162567 0.000000 0.000000
										CHANNELS 3 Xrotation Yrotation Zrotation
										JOINT RightHandRing3
										{
											OFFSET -3.324348 0.000000 0.000000
											CHANNELS 3 Xrotation Yrotation Zrotation
											End Site
											{
												OFFSET 0.861900 3.184998 0.405154
											}
										}
									}
								}
								JOINT RightHandPinky1
								{
									OFFSET -13.131393 -0.168503 -5.746925
									CHANNELS 3 Xrotation Yrotation Zrotation
									JOINT RightHandPinky2
									{
										OFFSET -2.849182 0.000000 0.000000
										CHANNELS 3 Xrotation Yrotation Zrotation
										JOINT RightHandPinky3
										{
											OFFSET -2.805038 0.000000 0.000000
											CHANNELS 3 Xrotation Yrotation Zrotation
											End Site
											{
												OFFSET 0.882500 2.642609 0.325652
											}
										}
									}
								}
							}
							JOINT Right_Sleeve
							{
								OFFSET -6.592125 -0.646545 0.805568
								CHANNELS 3 Xrotation Yrotation Zrotation
								End Site
								{
									OFFSET 0.000179 20.275787 -0.000000
								}
							}
						}
					}
				}
				JOINT Bind_Right_JacketString
				{
					OFFSET -3.534800 11.969597 7.200700
					CHANNELS 3 Xrotation Yrotation Zrotation
					JOINT Bind_Right_JacketString1
					{
						OFFSET -0.319900 -6.102600 2.794100
						CHANNELS 3 Xrotation Yrotation Zrotation
						End Site
						{
							OFFSET 0.000000 6.719452 0.000000
						}
					}
				}
				JOINT Bind_Left_JacketString
				{
					OFFSET 2.904800 11.969597 7.200700
					CHANNELS 3 Xrotation Yrotation Zrotation
					JOINT Bind_Left_JacketString1
					{
						OFFSET 0.364800 -5.904503 3.186800
						CHANNELS 3 Xrotation Yrotation Zrotation
						End Site
						{
							OFFSET 0.000000 6.719513 0.000000
						}
					}
				}
				JOINT HairE
				{
					OFFSET 5.915200 17.612701 -11.592200
					CHANNELS 3 Xrotation Yrotation Zrotation
					JOINT HairE1
					{
						OFFSET 0.289200 -7.171898 -1.284500
						CHANNELS 3 Xrotation Yrotation Zrotation
						End Site
						{
							OFFSET 0.000000 7.291756 0.000000
						}
					}
				}
				JOINT HairF
				{
					OFFSET -0.864800 17.612701 -11.592200
					CHANNELS 3 Xrotation Yrotation Zrotation
					JOINT HairF1
					{
						OFFSET 0.000000 -14.087097 -2.127501
						CHANNELS 3 Xrotation Yrotation Zrotation
						End Site
						{
							OFFSET 0.000000 14.246841 0.000000
						}
					}
				}
				JOINT HairG
				{
					OFFSET -8.087700 17.612701 -11.592200
					CHANNELS 3 Xrotation Yrotation Zrotation
					JOINT HairG1
					{
						OFFSET -0.293600 -6.081398 -0.910100
						CHANNELS 3 Xrotation Yrotation Zrotation
						End Site
						{
							OFFSET 0.000000 6.156120 0.000000
						}
					}
				}
			}
		}
	}
	JOINT Pouch
	{
		OFFSET 0.000000 4.394501 10.847300
		CHANNELS 3 Xrotation Yrotation Zrotation
		End Site
		{
			OFFSET 0.000000 21.880577 0.000000
		}
	}
	JOINT Bag
	{
		OFFSET -13.229000 4.813004 -0.593300
		CHANNELS 3 Xrotation Yrotation Zrotation
		End Site
		{
			OFFSET 0.000000 21.880577 0.000000
		}
	}
	JOINT OccupyGuyFacialAnim_Joint
	{
		OFFSET 1.000000 -70.206398 -1.655000
		CHANNELS 3 Xrotation Yrotation Zrotation
		End Site
		{
			OFFSET 0.000000 21.880577 0.000000
		}
	}
}
MOTION
Frames: 5
Frame Time: 0.016667
0.212639 62.278290 25.279604 11.281325 -1.130365 -5.473125 0.000000 0.000000 -0.000000 -56.165011 -1.780050 8.462319 128.253863 5.173981 0.402180 3.393164 0.674198 -2.131645 0.000000 -0.000000 -0.000001 -0.000002 0.000000 -0.000000 -33.774217 -10.622004 6.988759 57.956559 0.447159 1.339621 -34.920845 2.766427 -7.099139 0.000000 -0.000000 0.000000 0.000001 0.000000 -0.000000 9.994528 1.630841 7.595648 2.029112 -0.047010 0.508498 4.987205 -0.052526 0.186541 -3.841290 -0.341669 -0.277916 -16.135762 0.809280 -3.139613 -0.000000 0.000000 -0.000000 -0.000000 0.000000 -0.000000 -0.000000 0.000000 -0.000000 -0.000000 0.000000 -0.000000 -0.000000 0.000000 -0.000000 -0.000000 0.000000 -0.000000 -0.000000 0.000000 -0.000000 -0.000000 0.000000 -0.000000 -0.000000 0.000000 -0.000000 0.557753 -4.314608 -11.777486 13.923819 -4.816979 -56.121410 -0.000000 -89.999927 0.000018 3.946663 -2.534492 11.903177 -0.820516 6.623773 -5.864594 14.168494 15.386722 18.402801 0.000001 0.000001 -0.000000 9.947285 5.735780 -90.836257 4.054202 5.569230 -72.086397 -0.000000 -0.000002 -0.000004 4.883446 8.108007 -80.603383 4.657611 5.728448 -78.210775 0.000002 0.000000 -0.000001 2.753092 7.678660 -78.443514 5.946878 5.850282 -90.939878 -0.000000 0.000004 0.000002 7.311317 13.596512 -78.537244 4.413847 5.672392 -75.756954 -0.000002 -0.000001 0.000003 0.000002 -0.000001 0.000002 0.567967 4.488691 11.813867 -16.187036 25.518746 44.451155 -0.024293 90.272295 0.024065 7.843969 11.318558 -12.809353 5.535780 -3.771061 -3.032816 2.457536 -9.078650 -15.939554 0.000002 -0.000001 -0.000000 -3.723516 -3.298376 73.104997 3.463129 -4.501820 75.128502 0.000001 -0.000003 0.000001 -3.073204 -4.980247 74.622344 3.766046 -4.571286 78.956987 0.000001 -0.000000 -0.000001 -3.819543 -5.359632 78.849541 3.124228 -4.398165 70.762836 -0.000001 -0.000002 -0.000001 -1.443984 -6.451709 84.219552 3.515524 -4.515365 75.795074 -0.000001 0.000001 -0.000001 0.000002 0.000000 0.000001 0.000001 0.000000 0.000000 0.000001 0.000000 0.000000 0.000001 0.000000 -0.000000 0.000001 0.000000 -0.000000 0.000001 0.000000 0.000000 0.000001 0.000000 0.000000 0.000001 0.000000 -0.000000 0.000001 0.000000 -0.000000 0.000001 0.000000 0.000000 0.000001 0.000000 0.000000 0.000000 0.000000 -0.000000 0.000000 0.000000 -0.000000 0.000000 0.000000 -0.000000 
0.398439 62.211876 28.379881 12.169193 -1.422205 -4.404481 0.000001 0.000000 0.000000 -70.713939 -1.567700 8.260222 126.148813 5.116038 -0.655939 -2.594975 0.446067 -0.249153 -0.000001 -0.000001 0.000000 -0.000000 0.000000 -0.000000 -31.708679 -9.757264 7.081935 58.417529 -0.980859 0.196430 -37.552681 2.842158 -6.969786 -0.000000 -0.000000 -0.000000 -0.000001 -0.000000 -0.000000 10.852806 2.457280 6.132448 2.512569 0.388421 -0.101538 5.375361 0.319863 -0.444561 -4.070074 -0.572483 0.096463 -17.422067 0.090383 -1.909409 0.000001 -0.000000 -0.000000 0.000001 -0.000000 -0.000000 0.000001 -0.000000 0.000000 0.000001 -0.000000 0.000000 -0.000000 -0.000000 0.000000 0.000001 -0.000000 0.000000 -0.000000 -0.000000 0.000000 0.000001 -0.000000 -0.000000 0.000001 -0.000000 -0.000000 0.550756 -4.131757 -11.649550 15.857058 -4.083513 -55.500529 0.000099 -84.180886 0.000125 -0.007476 -3.522494 9.556825 -0.816977 6.649050 -5.842823 14.164841 15.374471 18.442544 -0.000000 0.000003 0.000001 10.008347 5.729166 -90.997927 4.064112 5.572399 -72.188474 0.000001 -0.000001 -0.000002 4.897398 8.110486 -80.744003 4.669136 5.730855 -78.326273 0.000001 -0.000000 -0.000003 2.740967 7.681164 -78.578922 5.961409 5.850031 -91.082471 0.000002 0.000003 -0.000002 7.299126 13.584420 -78.671861 4.424736 5.675143 -75.867091 0.000001 -0.000002 0.000004 0.000003 0.000003 -0.000001 0.473729 5.340370 11.212074 -18.532579 23.013670 45.080738 0.285157 92.041170 -0.284530 6.621910 11.435232 -18.486747 5.528088 -3.804568 -3.069128 2.442964 -9.034364 -15.978956 0.000003 0.000000 0.000001 -3.685724 -3.342045 73.312355 3.475253 -4.504977 75.283090 -0.000000 -0.000001 0.000002 -3.084191 -5.003732 74.836525 3.779377 -4.573878 79.123951 0.000002 -0.000001 -0.000001 -3.868945 -5.381810 79.076754 3.134962 -4.401891 70.902671 0.000003 -0.000001 0.000000 -1.521156 -6.464714 84.494788 3.527874 -4.518475 75.951827 0.000001 0.000001 0.000001 0.000002 -0.000000 0.000001 0.000001 0.000000 -0.000000 0.000002 0.000000 0.000000 0.000001 0.000000 -0.000000 0.000001 0.000000 -0.000000 0.000001 0.000000 -0.000000 0.000002 0.000000 0.000000 0.000001 0.000000 -0.000000 0.000001 0.000000 -0.000000 0.000001 0.000000 -0.000000 0.000002 0.000000 0.000000 0.000001 0.000000 0.000000 0.000001 0.000000 0.000000 0.000001 0.000000 0.000000 
0.531074 62.368523 31.396149 12.550434 -1.413970 -3.460590 -0.000001 0.000000 0.000000 -80.627986 -1.309929 8.634768 119.910227 2.048191 -2.200195 -9.144501 0.185452 0.071536 0.000001 -0.000000 0.000000 0.000001 -0.000000 0.000001 -28.810503 -8.775927 7.188883 57.943855 -0.873554 -0.844446 -39.276231 0.936728 -7.070074 0.000000 -0.000000 0.000000 0.000001 0.000000 -0.000000 11.635131 3.026779 4.679184 2.983595 0.736435 -0.674759 5.744165 0.609384 -1.028370 -3.883336 -0.735807 0.343319 -18.155242 -0.681946 -0.632056 -0.000000 0.000000 -0.000000 -0.000000 0.000000 -0.000000 -0.000000 0.000000 -0.000000 -0.000000 0.000000 -0.000000 0.000001 0.000000 -0.000000 -0.000000 0.000000 -0.000000 0.000001 0.000000 -0.000000 -0.000000 0.000000 -0.000000 -0.000000 0.000000 -0.000000 0.538970 -4.141283 -11.327447 18.370861 -3.661172 -55.120883 0.000026 -80.178853 0.000024 -2.644586 -4.276830 7.635061 -0.807195 6.718949 -5.782600 14.154870 15.340499 18.552312 0.000001 -0.000001 -0.000002 10.177112 5.709250 -91.444840 4.091541 5.581104 -72.470725 0.000001 0.000004 0.000001 4.935997 8.117146 -81.132907 4.701058 5.737310 -78.645721 0.000001 -0.000000 0.000004 2.707381 7.688500 -78.953319 6.001588 5.849139 -91.476703 0.000001 -0.000004 -0.000005 7.265157 13.551556 -79.043962 4.454873 5.682617 -76.171636 0.000001 -0.000001 0.000001 0.000000 -0.000001 -0.000000 0.447439 5.899439 10.987406 -20.430622 18.612566 45.715207 0.003329 95.070619 -0.003240 7.385908 12.237863 -22.965982 5.508421 -3.890103 -3.161990 2.405781 -8.921141 -16.079546 -0.000002 -0.000003 0.000003 -3.588209 -3.452435 73.842582 3.506325 -4.513009 75.678168 -0.000000 -0.000002 0.000004 -3.111889 -5.064236 75.383862 3.813410 -4.580239 79.550551 -0.000002 0.000002 0.000003 -3.994953 -5.440427 79.657231 3.162416 -4.411271 71.260033 0.000002 -0.000001 0.000001 -1.718436 -6.501716 85.197860 3.559462 -4.526232 76.352390 -0.000003 0.000002 0.000004 0.000002 -0.000000 0.000001 0.000001 -0.000000 0.000000 0.000002 0.000000 -0.000000 0.000001 -0.000000 0.000000 0.000001 -0.000000 0.000000 0.000001 -0.000000 0.000000 0.000002 0.000000 -0.000000 0.000001 -0.000000 0.000000 0.000001 -0.000000 0.000000 0.000001 -0.000000 0.000000 0.000002 0.000000 -0.000000 -0.000001 0.000000 0.000000 -0.000001 0.000000 0.000000 -0.000001 0.000000 0.000000 
0.604383 62.615799 34.491631 12.265611 -1.256614 -3.185383 -0.000000 -0.000000 -0.000000 -84.735422 -1.422342 9.271246 110.417774 -2.766744 -3.900572 -16.446448 0.424016 -2.070796 0.000000 0.000001 -0.000000 -0.000001 0.000000 -0.000000 -24.980027 -8.104655 7.752242 56.947413 -0.380717 -1.769986 -39.805427 -1.578237 -6.890358 -0.000000 -0.000001 -0.000000 0.000001 -0.000001 0.000000 12.179262 3.593455 3.806581 3.317687 1.004296 -1.066091 5.969674 0.834222 -1.426133 -3.184211 -0.852757 0.456090 -17.958348 -1.476783 0.463308 0.000001 -0.000000 -0.000000 0.000001 -0.000000 -0.000000 0.000001 -0.000000 -0.000000 0.000001 -0.000000 -0.000000 0.000001 -0.000000 0.000000 0.000001 -0.000000 -0.000000 0.000001 -0.000000 0.000000 0.000001 -0.000000 -0.000000 0.000001 -0.000000 -0.000000 0.522144 -4.229543 -10.713358 21.185304 -3.140020 -55.477580 -0.000041 -77.628269 0.000005 -2.809210 -4.161623 6.201285 -0.792436 6.824520 -5.691695 14.140004 15.289245 18.718260 -0.000000 -0.000000 0.000000 10.431894 5.674578 -92.119595 4.133045 5.593969 -72.897113 -0.000000 -0.000002 -0.000004 4.994379 8.126733 -81.720365 4.749341 5.746753 -79.128247 0.000001 -0.000001 0.000004 2.656596 7.700817 -79.518818 6.062262 5.847271 -92.072186 -0.000001 0.000000 -0.000001 7.213186 13.503615 -79.606107 4.500467 5.693589 -76.631663 0.000001 -0.000001 0.000003 0.000000 0.000002 -0.000001 0.476057 6.147942 11.241232 -21.265167 13.374092 46.275420 0.000007 97.989917 -0.000014 9.380821 14.068458 -25.678508 5.481891 -4.005304 -3.287309 2.355672 -8.768392 -16.214958 -0.000001 -0.000004 0.000002 -3.454664 -3.598520 74.557805 3.548265 -4.523495 76.210677 -0.000001 0.000002 0.000001 -3.148540 -5.147006 76.121482 3.859375 -4.588473 80.125557 0.000001 -0.000002 0.000001 -4.164361 -5.524009 80.439117 3.199519 -4.423666 71.741677 0.000002 0.000001 -0.000000 -1.984425 -6.560252 86.144607 3.602104 -4.536343 76.892330 -0.000002 0.000003 0.000001 0.000001 0.000000 -0.000000 0.000000 -0.000000 0.000000 -0.000001 -0.000000 0.000000 0.000000 -0.000000 0.000000 0.000000 -0.000000 0.000000 0.000000 -0.000000 0.000000 -0.000001 -0.000000 0.000000 0.000000 -0.000000 0.000000 0.000000 -0.000000 0.000000 0.000000 -0.000000 0.000000 -0.000001 -0.000000 0.000000 -0.000000 -0.000000 -0.000000 -0.000000 -0.000000 -0.000000 -0.000000 -0.000000 -0.000000 
0.631472 62.774254 37.999340 11.204978 -1.248029 -3.978308 -0.000000 -0.000000 -0.000000 -83.897310 -1.826429 9.787676 99.680792 -7.868273 -4.854515 -23.796905 2.483218 -5.404622 -0.000000 -0.000000 -0.000001 -0.000001 0.000000 -0.000001 -20.192812 -7.911705 8.883568 56.270899 0.648685 -2.386460 -39.129894 -4.037084 -6.017826 -0.000001 0.000001 -0.000000 -0.000001 -0.000000 -0.000000 12.235144 4.492956 3.950193 3.337152 1.195936 -1.180668 5.874697 1.001684 -1.551850 -1.902034 -0.938613 0.463574 -16.471262 -2.235370 1.240854 0.000001 -0.000000 0.000000 0.000001 -0.000000 0.000000 0.000001 -0.000000 0.000000 0.000001 -0.000000 0.000000 0.000001 -0.000000 -0.000000 0.000001 -0.000000 0.000000 0.000001 -0.000000 -0.000000 0.000001 -0.000000 0.000000 0.000001 -0.000000 0.000000 0.502968 -4.272989 -9.818080 24.079233 -2.115458 -56.822044 0.000042 -75.922955 0.000021 -0.264738 -2.905613 5.031613 -0.773951 6.956884 -5.577688 14.121804 15.225064 18.926406 0.000003 -0.000002 0.000002 10.750808 5.623404 -92.964701 4.185247 5.609686 -73.431596 -0.000001 -0.000001 -0.000000 5.067735 8.137901 -82.456769 4.809972 5.758001 -79.733183 0.000002 0.000002 -0.000001 2.592836 7.718413 -80.227621 6.138292 5.844049 -92.818651 0.000002 0.000000 -0.000003 7.146921 13.446431 -80.310594 4.557750 5.706831 -77.208376 -0.000004 0.000002 0.000003 0.000003 -0.000002 0.000001 0.544191 6.092850 11.959999 -19.126919 9.551820 46.232799 -0.000052 99.943433 0.000038 10.224703 16.686939 -27.339015 5.453608 -4.127809 -3.420883 2.302406 -8.605651 -16.358849 0.000002 -0.000000 0.000003 -3.309911 -3.750572 75.319932 3.593015 -4.534207 76.777583 -0.000003 0.000001 0.000000 -3.186651 -5.236673 76.906591 3.908369 -4.596715 80.737679 0.000002 0.000002 0.000005 -4.343993 -5.618683 81.270727 3.239140 -4.436477 72.254461 -0.000001 -0.000001 -0.000000 -2.267388 -6.633512 87.151308 3.647623 -4.546664 77.467090 -0.000000 0.000002 0.000001 0.000003 -0.000000 -0.000001 -0.000002 0.000000 -0.000001 0.000000 0.000000 -0.000000 -0.000002 0.000000 -0.000000 -0.000002 0.000000 -0.000000 -0.000002 0.000000 -0.000001 0.000000 0.000000 -0.000000 -0.000002 0.000000 -0.000000 -0.000002 0.000000 -0.000000 -0.000002 0.000000 -0.000001 0.000000 0.000000 -0.000000 -0.000000 -0.000000 -0.000000 -0.000000 -0.000000 -0.000000 -0.000000 -0.000000 -0.000000 
